<?xml version="1.0" encoding="UTF-8" standalone="no"?>
<!-- Created with Inkscape (http://www.inkscape.org/) -->

<svg
   width="25mm"
   height="25mm"
   viewBox="0 0 25 25"
   version="1.1"
   id="svg5"
   inkscape:version="1.2.1 (9c6d41e410, 2022-07-14, custom)"
   sodipodi:docname="brinco21.svg"
   xmlns:inkscape="http://www.inkscape.org/namespaces/inkscape"
   xmlns:sodipodi="http://sodipodi.sourceforge.net/DTD/sodipodi-0.dtd"
   xmlns="http://www.w3.org/2000/svg"
   xmlns:svg="http://www.w3.org/2000/svg">
  <sodipodi:namedview
     id="namedview7"
     pagecolor="#353535"
     bordercolor="#000000"
     borderopacity="0.25"
     inkscape:showpageshadow="2"
     inkscape:pageopacity="0"
     inkscape:pagecheckerboard="0"
     inkscape:deskcolor="#d1d1d1"
     inkscape:document-units="mm"
     showgrid="false"
     showguides="true"
     inkscape:zoom="3.9482604"
     inkscape:cx="45.336422"
     inkscape:cy="53.187982"
     inkscape:window-width="1366"
     inkscape:window-height="713"
     inkscape:window-x="0"
     inkscape:window-y="0"
     inkscape:window-maximized="1"
     inkscape:current-layer="layer1" />
  <defs
     id="defs2" />
  <g
     inkscape:label="Layer 1"
     inkscape:groupmode="layer"
     id="layer1">
    <path
       id="path885"
       style="fill:#fefefe;fill-rule:evenodd;stroke-width:0.0395325"
       d="m 12.467403,2.5175349 a 0.96831778,0.96831778 0 0 0 -0.968335,0.968335 0.96831778,0.96831778 0 0 0 0.239428,0.6373851 c -0.517091,0.5715373 -1.052595,1.782293 -1.606538,3.8529109 l -2.1425939,-0.467416 1.785495,1.912973 c -0.08286,0.361072 -0.165578,0.7419681 -0.249234,1.1432071 l -3.9542383,2.565066 3.5489273,-0.479672 c -0.160573,0.885637 -0.322005,1.845656 -0.485393,2.890296 3.8121999,5.253816 -0.124125,0.778373 -0.125026,1.163635 1.63e-4,1.889318 1.165823,3.478693 2.8682329,3.950154 a 1.2356228,1.2356228 0 0 0 -0.174055,0.63003 1.2356228,1.2356228 0 0 0 1.166088,1.233096 0.86142132,0.86142132 0 0 1 -0.791829,-0.858835 0.86142132,0.86142132 0 0 1 0.861288,-0.861288 0.86142132,0.86142132 0 0 1 0.862103,0.861288 0.86142132,0.86142132 0 0 1 -0.776302,0.8572 1.2356228,1.2356228 0 0 0 1.150562,-1.231461 1.2356228,1.2356228 0 0 0 -0.172421,-0.627579 c 1.744522,-0.46854 3.02905,-2.060204 3.029213,-3.952605 -1.48e-4,-0.325417 -4.071272,4.048908 -0.116036,-0.965883 -0.100246,-0.734786 -0.267879,-1.829281 -0.493565,-3.062717 l 3.310316,0.454341 -3.711541,-2.478447 C 15.419064,10.174094 15.308299,9.6933539 15.191815,9.2198839 l 1.608172,-1.7667 -1.956282,0.452706 C 14.3687,6.2411053 13.8096,4.808409 13.187321,4.1322438 a 0.96831778,0.96831778 0 0 0 0.2476,-0.6463739 0.96831778,0.96831778 0 0 0 -0.967518,-0.968335 z m 0,0.2770174 A 0.69134064,0.69134064 0 0 1 13.15872,3.4858699 0.69134064,0.69134064 0 0 1 12.985482,3.9426626 C 12.81376,3.8053167 12.637822,3.7262029 12.457598,3.7179435 c -0.170511,0.00587 -0.343163,0.075248 -0.518081,0.2149131 a 0.69134064,0.69134064 0 0 1 -0.16425,-0.4469867 0.69134064,0.69134064 0 0 1 0.692136,-0.6913176 z m -0.0098,1.8239019 c 0.704237,0.033331 1.323353,1.5730017 1.811643,3.4206327 l -0.712563,0.165067 -1.09908,-2.2790604 -1.226559,2.2913174 -0.599796,-0.130745 c 0.645294,-2.4820619 1.271676,-3.4475014 1.82635,-3.4672117 z m 0,2.7995917 c 0.372932,0.0039 0.645813,0.377969 0.841674,0.845761 l -0.898064,0.207558 -0.886618,-0.193667 c 0.238376,-0.483692 0.55059,-0.863731 0.943003,-0.859652 z m 3.529315,0.55812 -0.867825,0.953626 c -0.06067,-0.239308 -0.12315,-0.47619 -0.187129,-0.709295 z m -7.1795719,0.04494 1.2420839,0.271297 c -0.06852,0.265852 -0.1368499,0.545671 -0.2059229,0.838407 z m 5.5436169,0.333401 c 0.09332,0.37041 0.181395,0.749318 0.263942,1.129316 l -0.288457,0.316242 -0.625128,-1.2952 z m -3.799797,0.0474 0.519716,0.113585 -0.656181,1.226557 -0.137284,-0.147088 c 0.09143,-0.429186 0.182856,-0.826415 0.273749,-1.193054 z m 2.861696,0.169969 c 0.106102,0.320277 0.180838,0.651522 0.232891,0.927476 a 1.707731,0.87615687 0 0 0 -1.230643,-0.268845 1.707731,0.87615687 0 0 0 -1.353218,0.34239 c 0.0759,-0.298467 0.179146,-0.652287 0.316241,-0.990398 l 1.023903,0.223085 z m -1.010826,1.023903 a 0.54887809,0.54887809 0 0 1 0.54913,0.5491301 0.54887809,0.54887809 0 0 1 -0.54913,0.548315 0.54887809,0.54887809 0 0 1 -0.548315,-0.548315 0.54887809,0.54887809 0 0 1 0.548315,-0.5491301 z m 2.276608,0.187945 c 0.0248,0.118248 0.04903,0.2362891 0.07273,0.3538311 L 14.505409,9.9733069 Z m -4.463331,0.108683 0.07518,0.0809 -0.07763,0.1454541 -0.05066,0.03269 c 0.01756,-0.08751 0.03557,-0.1739261 0.05311,-0.2590401 z m 3.920737,0.4870281 0.759958,0.507456 c 0.07686,0.413224 0.145692,0.810128 0.206742,1.181614 l -1.662104,-0.227988 0.31951,-1.048416 z m -3.433708,0.03514 0.36854,0.39469 0.330949,1.037792 -1.5901939,0.212462 c 0.07145,-0.422773 0.143468,-0.825672 0.2149129,-1.206946 z m 0.641471,0.374259 a 1.707731,0.87615687 0 0 0 1.071297,0.193669 1.707731,0.87615687 0 0 0 1.066393,-0.192034 l -0.308886,1.01328 -0.715014,-0.09806 -0.787743,0.105414 z m -1.9620019,0.482125 c -0.05541,0.279792 -0.110951,0.570561 -0.166701,0.868642 l -1.476609,0.197753 z m 6.2970379,0.138917 1.388354,0.927478 -1.238815,-0.169969 c -0.04737,-0.248796 -0.09783,-0.501902 -0.149539,-0.757509 z m -3.221246,0.790194 0.569559,0.07845 -0.590806,1.937487 -0.615322,-1.930133 z m 0.838406,0.11522 1.888457,0.259041 c 0.06634,0.427045 0.120115,0.8054 0.159346,1.102349 0.05626,0.238333 -5.8670709,0.719029 0.08498,0.72809 -4.2e-5,1.276305 -0.741766,2.371276 -1.807559,2.840448 a 1.5326775,1.5326775 0 0 0 0.352196,-0.974871 1.5326775,1.5326775 0 0 0 -1.418589,-1.527273 z m -1.742187,0.0065 0.772218,2.422065 a 1.5326775,1.5326775 0 0 0 -1.417775,1.526455 1.5326775,1.5326775 0 0 0 0.332586,0.953627 c -1.049224,-0.480441 -1.7862719,-1.561844 -1.7863129,-2.819204 5.9766869,-0.01233 0.04063,-0.579237 0.119305,-0.858019 0.05123,-0.338272 0.102308,-0.662281 0.153626,-0.978141 z m 1.001023,2.422065 a 1.0685147,1.0685147 0 0 1 0.954442,1.062307 1.0685147,1.0685147 0 0 1 -1.068845,1.068846 1.0685147,1.0685147 0 0 1 -1.068846,-1.068846 1.0685147,1.0685147 0 0 1 0.954444,-1.06149 l 0.116853,0.366087 z m -0.152809,3.495812 a 2.3359191,0.77863963 0 0 1 2.336261,0.777936 2.3359191,0.77863963 0 0 1 -2.336261,0.778754 2.3359191,0.77863963 0 0 1 -2.335446,-0.778754 2.3359191,0.77863963 0 0 1 2.335446,-0.777936 z" />
  </g>
</svg>
